# xmcd CD database file
#
# Track frame offsets:
#	150
#	20802
#	42254
#	64755
#	91313
#	114266
#	132021
#	149300
#	166214
#	179272
#	196898
#	217886
#
# Disc length: 3180 seconds
#
# Revision: 0
# Processed by: cddbd v1.5.2PL0 Copyright (c) Steve Scherf et al.
# Submitted via: CDex 1.70beta2
#
DISCID=a00c6a0c
DTITLE=Chuck Brown - Timeless
DYEAR=1998
DGENRE=Jazz
TTITLE0=nature boy
TTITLE1=never make your move too soon
TTITLE2=i only have eyes for you
TTITLE3=wild is the wind
TTITLE4=autumn leaves
TTITLE5=love wont let me wait
TTITLE6=blue skies
TTITLE7=a foggy day
TTITLE8=tenderly
TTITLE9=youd be so nice to come home to
TTITLE10=hey there
TTITLE11=caravan
EXTD=YEAR: 1998
EXTT0=
EXTT1=
EXTT2=
EXTT3=
EXTT4=
EXTT5=
EXTT6=
EXTT7=
EXTT8=
EXTT9=
EXTT10=
EXTT11=
PLAYORDER=
